<svg width="99" height="30" viewBox="0 0 99 30" fill="none" xmlns="http://www.w3.org/2000/svg">
<g clip-path="url(#clip0_115_6556)">
<path d="M9.72498 -1.55127L12.5 1.22373L11.6666 2.8904L13.3333 4.55706" stroke="url(#paint0_linear_115_6556)" stroke-linecap="round" stroke-linejoin="round"/>
<path d="M11.775 7.5C12.4486 7.49136 13.1058 7.70845 13.6417 8.11667C14.0343 8.40887 14.5106 8.56669 15 8.56669C15.4894 8.56669 15.9658 8.40887 16.3584 8.11667C16.8943 7.70845 17.5514 7.49136 18.225 7.5C20.65 7.5 22.2667 9.16667 21.4584 13.3333C20.65 17.5 20.625 22.5 18.225 22.5C15.825 22.5 16.6167 16.8667 15 16.8667C13.3834 16.8667 14.1667 22.5 11.775 22.5C9.38336 22.5 9.35003 17.5 8.54169 13.3333C7.73336 9.16667 9.35003 7.5 11.775 7.5Z" stroke="#1E1E1E" stroke-linecap="round" stroke-linejoin="round"/>
</g>
<path d="M38.246 10.704H34.606V20H33.892V10.704H30.252V10.06H38.246V10.704ZM40.1946 20.14C39.6813 20.14 39.2053 20.042 38.7666 19.846C38.3373 19.6407 37.964 19.3653 37.6466 19.02C37.3293 18.6747 37.082 18.2733 36.9046 17.816C36.7273 17.3587 36.6386 16.878 36.6386 16.374C36.6386 15.8607 36.7273 15.3753 36.9046 14.918C37.0913 14.4607 37.3433 14.0593 37.6606 13.714C37.978 13.3687 38.3513 13.098 38.7806 12.902C39.2193 12.6967 39.6906 12.594 40.1946 12.594C40.6986 12.594 41.1653 12.6967 41.5946 12.902C42.024 13.098 42.3973 13.3687 42.7146 13.714C43.0413 14.0593 43.2933 14.4607 43.4706 14.918C43.6573 15.3753 43.7506 15.8607 43.7506 16.374C43.7506 16.878 43.6573 17.3587 43.4706 17.816C43.2933 18.2733 43.046 18.6747 42.7286 19.02C42.4113 19.3653 42.0333 19.6407 41.5946 19.846C41.1653 20.042 40.6986 20.14 40.1946 20.14ZM37.3386 16.402C37.3386 16.8313 37.4133 17.2373 37.5626 17.62C37.712 17.9933 37.9126 18.32 38.1646 18.6C38.426 18.88 38.7293 19.104 39.0746 19.272C39.42 19.4307 39.7886 19.51 40.1806 19.51C40.5726 19.51 40.9413 19.4307 41.2866 19.272C41.632 19.104 41.9353 18.8753 42.1966 18.586C42.458 18.2967 42.6633 17.9653 42.8126 17.592C42.962 17.2093 43.0366 16.7987 43.0366 16.36C43.0366 15.9307 42.962 15.5293 42.8126 15.156C42.6633 14.7733 42.458 14.442 42.1966 14.162C41.9353 13.8727 41.632 13.644 41.2866 13.476C40.9506 13.308 40.5866 13.224 40.1946 13.224C39.8026 13.224 39.434 13.308 39.0886 13.476C38.7433 13.644 38.44 13.8727 38.1786 14.162C37.9266 14.4513 37.7213 14.792 37.5626 15.184C37.4133 15.5667 37.3386 15.9727 37.3386 16.402ZM47.6398 20.14C47.1264 20.14 46.6504 20.042 46.2118 19.846C45.7824 19.6407 45.4091 19.3653 45.0918 19.02C44.7744 18.6747 44.5271 18.2733 44.3498 17.816C44.1724 17.3587 44.0838 16.878 44.0838 16.374C44.0838 15.8607 44.1724 15.3753 44.3498 14.918C44.5364 14.4607 44.7884 14.0593 45.1058 13.714C45.4231 13.3687 45.7964 13.098 46.2258 12.902C46.6644 12.6967 47.1358 12.594 47.6398 12.594C48.1438 12.594 48.6104 12.6967 49.0398 12.902C49.4691 13.098 49.8424 13.3687 50.1598 13.714C50.4864 14.0593 50.7384 14.4607 50.9158 14.918C51.1024 15.3753 51.1958 15.8607 51.1958 16.374C51.1958 16.878 51.1024 17.3587 50.9158 17.816C50.7384 18.2733 50.4911 18.6747 50.1738 19.02C49.8564 19.3653 49.4784 19.6407 49.0398 19.846C48.6104 20.042 48.1438 20.14 47.6398 20.14ZM44.7838 16.402C44.7838 16.8313 44.8584 17.2373 45.0078 17.62C45.1571 17.9933 45.3578 18.32 45.6098 18.6C45.8711 18.88 46.1744 19.104 46.5198 19.272C46.8651 19.4307 47.2338 19.51 47.6258 19.51C48.0178 19.51 48.3864 19.4307 48.7318 19.272C49.0771 19.104 49.3804 18.8753 49.6418 18.586C49.9031 18.2967 50.1084 17.9653 50.2578 17.592C50.4071 17.2093 50.4818 16.7987 50.4818 16.36C50.4818 15.9307 50.4071 15.5293 50.2578 15.156C50.1084 14.7733 49.9031 14.442 49.6418 14.162C49.3804 13.8727 49.0771 13.644 48.7318 13.476C48.3958 13.308 48.0318 13.224 47.6398 13.224C47.2478 13.224 46.8791 13.308 46.5338 13.476C46.1884 13.644 45.8851 13.8727 45.6238 14.162C45.3718 14.4513 45.1664 14.792 45.0078 15.184C44.8584 15.5667 44.7838 15.9727 44.7838 16.402ZM51.5289 16.332C51.5289 15.8187 51.6176 15.3333 51.7949 14.876C51.9723 14.4187 52.2196 14.022 52.5369 13.686C52.8543 13.35 53.2323 13.084 53.6709 12.888C54.1096 12.692 54.5903 12.594 55.1129 12.594C55.7756 12.594 56.3589 12.7433 56.8629 13.042C57.3669 13.3407 57.7449 13.756 57.9969 14.288L57.3109 14.512C57.0963 14.1107 56.7883 13.798 56.3869 13.574C55.9949 13.3407 55.5609 13.224 55.0849 13.224C54.6836 13.224 54.3103 13.3033 53.9649 13.462C53.6196 13.6207 53.3163 13.84 53.0549 14.12C52.8029 14.4 52.6023 14.7313 52.4529 15.114C52.3036 15.4873 52.2289 15.8933 52.2289 16.332C52.2289 16.7707 52.3036 17.186 52.4529 17.578C52.6116 17.9607 52.8169 18.2967 53.0689 18.586C53.3303 18.866 53.6336 19.09 53.9789 19.258C54.3336 19.426 54.7069 19.51 55.0989 19.51C55.3509 19.51 55.5983 19.4727 55.8409 19.398C56.0929 19.3233 56.3216 19.2253 56.5269 19.104C56.7416 18.9827 56.9236 18.8427 57.0729 18.684C57.2316 18.516 57.3389 18.3433 57.3949 18.166L58.0809 18.362C57.9876 18.614 57.8429 18.852 57.6469 19.076C57.4603 19.2907 57.2363 19.4773 56.9749 19.636C56.7136 19.7947 56.4243 19.916 56.1069 20C55.7896 20.0933 55.4629 20.14 55.1269 20.14C54.6136 20.14 54.1376 20.042 53.6989 19.846C53.2603 19.6407 52.8776 19.3653 52.5509 19.02C52.2336 18.6653 51.9816 18.2593 51.7949 17.802C51.6176 17.3447 51.5289 16.8547 51.5289 16.332ZM64.7718 20H64.0718V15.94C64.0718 14.1387 63.4698 13.238 62.2658 13.238C61.9672 13.238 61.6732 13.294 61.3838 13.406C61.1038 13.518 60.8378 13.6767 60.5858 13.882C60.3432 14.0873 60.1285 14.33 59.9418 14.61C59.7552 14.8807 59.6152 15.1747 59.5218 15.492V20H58.8218V9.78H59.5218V14.456C59.8205 13.8867 60.2312 13.434 60.7538 13.098C61.2858 12.762 61.8552 12.594 62.4618 12.594C62.8632 12.594 63.2085 12.6687 63.4978 12.818C63.7872 12.9673 64.0252 13.182 64.2118 13.462C64.4078 13.742 64.5478 14.0827 64.6318 14.484C64.7252 14.876 64.7718 15.3193 64.7718 15.814V20ZM75.2603 20V11.404L71.3402 18.11H70.8922L66.9722 11.404V20H66.2582V10.06H66.9722L71.1162 17.172L75.2603 10.06H75.9743V20H75.2603ZM80.5249 20.14C80.0116 20.14 79.5356 20.042 79.0969 19.846C78.6582 19.6407 78.2756 19.3653 77.9489 19.02C77.6316 18.6653 77.3796 18.2593 77.1929 17.802C77.0156 17.3447 76.9269 16.8547 76.9269 16.332C76.9269 15.8187 77.0156 15.338 77.1929 14.89C77.3796 14.4327 77.6316 14.036 77.9489 13.7C78.2662 13.3547 78.6396 13.084 79.0689 12.888C79.5076 12.692 79.9789 12.594 80.4829 12.594C80.9962 12.594 81.4722 12.6967 81.9109 12.902C82.3496 13.098 82.7276 13.3687 83.0449 13.714C83.3622 14.05 83.6096 14.4467 83.7869 14.904C83.9642 15.352 84.0529 15.828 84.0529 16.332C84.0529 16.3787 84.0529 16.4393 84.0529 16.514C84.0529 16.5793 84.0482 16.6213 84.0389 16.64H77.6549C77.6829 17.06 77.7809 17.452 77.9489 17.816C78.1169 18.1707 78.3269 18.4787 78.5789 18.74C78.8402 19.0013 79.1389 19.2067 79.4749 19.356C79.8109 19.5053 80.1702 19.58 80.5529 19.58C80.8049 19.58 81.0522 19.5473 81.2949 19.482C81.5376 19.4073 81.7616 19.3093 81.9669 19.188C82.1816 19.0667 82.3682 18.922 82.5269 18.754C82.6949 18.5767 82.8256 18.3853 82.9189 18.18L83.5349 18.348C83.4322 18.6093 83.2782 18.852 83.0729 19.076C82.8769 19.2907 82.6436 19.4773 82.3729 19.636C82.1116 19.7947 81.8222 19.916 81.5049 20C81.1876 20.0933 80.8609 20.14 80.5249 20.14ZM83.3809 16.08C83.3529 15.6507 83.2549 15.2587 83.0869 14.904C82.9282 14.5493 82.7182 14.246 82.4569 13.994C82.2049 13.7327 81.9109 13.532 81.5749 13.392C81.2389 13.2427 80.8796 13.168 80.4969 13.168C80.1142 13.168 79.7549 13.2427 79.4189 13.392C79.0829 13.532 78.7842 13.7327 78.5229 13.994C78.2709 14.246 78.0656 14.554 77.9069 14.918C77.7576 15.2727 77.6689 15.66 77.6409 16.08H83.3809ZM87.749 20.14C87.245 20.14 86.7783 20.0373 86.349 19.832C85.9197 19.6173 85.5463 19.3373 85.229 18.992C84.921 18.6373 84.6783 18.236 84.501 17.788C84.333 17.3307 84.249 16.8593 84.249 16.374C84.249 15.87 84.333 15.3893 84.501 14.932C84.669 14.4747 84.9023 14.0733 85.201 13.728C85.4997 13.3827 85.8497 13.1073 86.251 12.902C86.6617 12.6967 87.1097 12.594 87.595 12.594C87.9123 12.594 88.211 12.6407 88.491 12.734C88.771 12.8273 89.0323 12.9533 89.275 13.112C89.5177 13.2613 89.737 13.4387 89.933 13.644C90.129 13.8493 90.297 14.0687 90.437 14.302V9.78H91.137V19.02C91.137 19.2533 91.235 19.37 91.431 19.37V20C91.375 20.0093 91.3283 20.014 91.291 20.014C91.2537 20.0233 91.2163 20.028 91.179 20.028C90.9923 20.028 90.8337 19.958 90.703 19.818C90.5723 19.6687 90.507 19.5147 90.507 19.356V18.544C90.2083 19.0293 89.807 19.4167 89.303 19.706C88.8083 19.9953 88.2903 20.14 87.749 20.14ZM87.875 19.51C88.127 19.51 88.3977 19.4587 88.687 19.356C88.9763 19.2533 89.2423 19.1133 89.485 18.936C89.737 18.7493 89.9517 18.5393 90.129 18.306C90.3063 18.0727 90.409 17.8207 90.437 17.55V15.156C90.3343 14.8947 90.185 14.6473 89.989 14.414C89.8023 14.1713 89.5877 13.966 89.345 13.798C89.1023 13.6207 88.841 13.4807 88.561 13.378C88.281 13.2753 88.0103 13.224 87.749 13.224C87.329 13.224 86.9463 13.3173 86.601 13.504C86.2557 13.6813 85.9617 13.9193 85.719 14.218C85.4763 14.5073 85.2897 14.8433 85.159 15.226C85.0283 15.5993 84.963 15.9867 84.963 16.388C84.963 16.808 85.0377 17.2047 85.187 17.578C85.3363 17.9513 85.5417 18.2827 85.803 18.572C86.0737 18.8613 86.3817 19.09 86.727 19.258C87.0817 19.426 87.4643 19.51 87.875 19.51ZM92.3723 20V18.81H92.9883V20H92.3723Z" fill="#1A1A1A"/>
<defs>
<linearGradient id="paint0_linear_115_6556" x1="11.5291" y1="-1.55127" x2="11.5291" y2="4.55706" gradientUnits="userSpaceOnUse">
<stop stop-color="#008070"/>
<stop offset="1" stop-color="#008979"/>
</linearGradient>
<clipPath id="clip0_115_6556">
<rect width="20" height="20" fill="white" transform="translate(5 5)"/>
</clipPath>
</defs>
</svg>
