<svg width="125" height="28" viewBox="0 0 125 28" fill="none" xmlns="http://www.w3.org/2000/svg">
<rect width="125" height="28" rx="14" fill="#696969"/>
<path d="M11.456 8.912C12.0213 8.912 12.5973 8.91733 13.184 8.928C13.7813 8.928 14.3627 8.944 14.928 8.976C15.504 8.99733 16.0373 9.03467 16.528 9.088L16.4 10.848H12.4C12.112 10.848 11.8933 10.9173 11.744 11.056C11.5947 11.1947 11.52 11.3973 11.52 11.664V20H9.072V11.168C9.072 10.4853 9.29067 9.94133 9.728 9.536C10.1653 9.12 10.7413 8.912 11.456 8.912ZM9.36 13.584H15.808V15.312H9.36V13.584ZM22.2663 8.8C23.2369 8.8 24.0209 8.90133 24.6183 9.104C25.2263 9.296 25.6689 9.632 25.9462 10.112C26.2343 10.5813 26.3783 11.2373 26.3783 12.08C26.3783 12.592 26.3089 13.0453 26.1703 13.44C26.0423 13.824 25.8236 14.1333 25.5143 14.368C25.2049 14.6027 24.7836 14.752 24.2503 14.816V14.896C24.4423 14.928 24.6396 15.0027 24.8423 15.12C25.0556 15.2373 25.2529 15.4133 25.4343 15.648C25.6156 15.872 25.7489 16.176 25.8343 16.56L26.7943 20H24.2183L23.3703 16.64C23.2743 16.2773 23.1303 16.0267 22.9383 15.888C22.7569 15.7493 22.5009 15.68 22.1703 15.68C21.4449 15.68 20.8316 15.68 20.3303 15.68C19.8396 15.6693 19.4236 15.6587 19.0823 15.648C18.7516 15.6373 18.4529 15.6267 18.1863 15.616L18.2343 13.84H22.2183C22.6449 13.84 22.9809 13.7973 23.2263 13.712C23.4823 13.616 23.6583 13.4507 23.7543 13.216C23.8609 12.9813 23.9143 12.656 23.9143 12.24C23.9143 11.8133 23.8609 11.488 23.7543 11.264C23.6583 11.0293 23.4823 10.8693 23.2263 10.784C22.9809 10.688 22.6449 10.64 22.2183 10.64C21.2156 10.64 20.3676 10.6453 19.6743 10.656C18.9809 10.6667 18.5063 10.6827 18.2503 10.704L18.0103 8.96C18.4583 8.90667 18.8796 8.86933 19.2743 8.848C19.6689 8.82667 20.1009 8.816 20.5703 8.816C21.0396 8.80533 21.6049 8.8 22.2663 8.8ZM20.4263 8.96V20H18.0103V8.96H20.4263ZM30.6416 8.912C31.239 8.912 31.8416 8.91733 32.4496 8.928C33.0576 8.928 33.655 8.93867 34.2416 8.96C34.8283 8.98133 35.3776 9.01867 35.8896 9.072L35.7776 10.848H31.5376C31.271 10.848 31.0683 10.9173 30.9296 11.056C30.8016 11.1947 30.7376 11.3973 30.7376 11.664V17.296C30.7376 17.5627 30.8016 17.7653 30.9296 17.904C31.0683 18.0427 31.271 18.112 31.5376 18.112H35.7776L35.8896 19.888C35.3776 19.9307 34.8283 19.968 34.2416 20C33.655 20.0213 33.0576 20.032 32.4496 20.032C31.8416 20.0427 31.239 20.048 30.6416 20.048C29.9376 20.048 29.367 19.8453 28.9296 19.44C28.503 19.024 28.2896 18.4853 28.2896 17.824V11.136C28.2896 10.464 28.503 9.92533 28.9296 9.52C29.367 9.11467 29.9376 8.912 30.6416 8.912ZM28.5776 13.392H35.1856V15.12H28.5776V13.392ZM39.8916 8.912C40.489 8.912 41.0916 8.91733 41.6996 8.928C42.3076 8.928 42.905 8.93867 43.4916 8.96C44.0783 8.98133 44.6276 9.01867 45.1396 9.072L45.0276 10.848H40.7876C40.521 10.848 40.3183 10.9173 40.1796 11.056C40.0516 11.1947 39.9876 11.3973 39.9876 11.664V17.296C39.9876 17.5627 40.0516 17.7653 40.1796 17.904C40.3183 18.0427 40.521 18.112 40.7876 18.112H45.0276L45.1396 19.888C44.6276 19.9307 44.0783 19.968 43.4916 20C42.905 20.0213 42.3076 20.032 41.6996 20.032C41.0916 20.0427 40.489 20.048 39.8916 20.048C39.1876 20.048 38.617 19.8453 38.1796 19.44C37.753 19.024 37.5396 18.4853 37.5396 17.824V11.136C37.5396 10.464 37.753 9.92533 38.1796 9.52C38.617 9.11467 39.1876 8.912 39.8916 8.912ZM37.8276 13.392H44.4356V15.12H37.8276V13.392ZM49.2856 8.96V17.216C49.2856 17.4827 49.3603 17.6853 49.5096 17.824C49.659 17.9627 49.8723 18.032 50.1496 18.032H54.0056L54.1176 19.872C53.3603 19.9573 52.5656 20.0053 51.7336 20.016C50.9123 20.0373 50.091 20.048 49.2696 20.048C48.4696 20.048 47.8616 19.8347 47.4456 19.408C47.0403 18.9707 46.8376 18.416 46.8376 17.744V8.96H49.2856ZM60.7278 8.96C60.9304 8.96 61.1064 9.01867 61.2558 9.136C61.4158 9.25333 61.5224 9.408 61.5758 9.6L64.7758 20H62.2798L60.0238 11.888C59.9811 11.7067 59.9384 11.5253 59.8958 11.344C59.8531 11.152 59.8158 10.9707 59.7838 10.8H59.3518C59.3198 10.9707 59.2824 11.152 59.2398 11.344C59.2078 11.5253 59.1651 11.7067 59.1118 11.888L56.8558 20H54.3438L57.5598 9.6C57.6131 9.408 57.7144 9.25333 57.8638 9.136C58.0238 9.01867 58.2051 8.96 58.4078 8.96H60.7278ZM62.4237 15.248V17.088H56.6957V15.248H62.4237ZM75.2449 8.96V19.12C75.2449 19.7067 74.9515 20 74.3649 20H73.0209C72.7542 20 72.5515 19.9413 72.4129 19.824C72.2742 19.696 72.1462 19.5093 72.0289 19.264L68.9729 13.472C68.8449 13.2267 68.7169 12.9547 68.5889 12.656C68.4715 12.3573 68.3702 12.0693 68.2849 11.792H68.1089C68.1409 12.08 68.1675 12.3733 68.1889 12.672C68.2102 12.96 68.2209 13.248 68.2209 13.536V20H65.9009V9.84C65.9009 9.25333 66.1995 8.96 66.7969 8.96H68.1249C68.3809 8.96 68.5729 9.024 68.7009 9.152C68.8395 9.26933 68.9729 9.45067 69.1009 9.696L72.0609 15.312C72.1889 15.5573 72.3222 15.8293 72.4609 16.128C72.5995 16.4267 72.7329 16.736 72.8609 17.056H73.0529C73.0209 16.736 72.9942 16.4267 72.9729 16.128C72.9622 15.8187 72.9569 15.5147 72.9569 15.216L72.9409 8.96H75.2449ZM81.7678 8.768C82.2904 8.768 82.7331 8.784 83.0958 8.816C83.4691 8.83733 83.8104 8.87467 84.1198 8.928C84.4291 8.98133 84.7491 9.056 85.0798 9.152L84.8878 10.944C84.5358 10.9227 84.2104 10.9067 83.9118 10.896C83.6238 10.8853 83.3091 10.88 82.9678 10.88C82.6371 10.8693 82.2371 10.864 81.7678 10.864C81.2238 10.864 80.7971 10.9707 80.4878 11.184C80.1891 11.3973 79.9758 11.7707 79.8478 12.304C79.7198 12.8267 79.6558 13.552 79.6558 14.48C79.6558 15.408 79.7198 16.1387 79.8478 16.672C79.9758 17.1947 80.1891 17.5627 80.4878 17.776C80.7971 17.9893 81.2238 18.096 81.7678 18.096C82.5038 18.096 83.1224 18.0853 83.6238 18.064C84.1251 18.0427 84.6211 18.0053 85.1118 17.952L85.3198 19.744C84.8078 19.904 84.2851 20.016 83.7518 20.08C83.2184 20.1547 82.5571 20.192 81.7678 20.192C80.6264 20.192 79.7091 20.0107 79.0158 19.648C78.3331 19.2747 77.8371 18.672 77.5278 17.84C77.2291 17.008 77.0798 15.888 77.0798 14.48C77.0798 13.072 77.2291 11.952 77.5278 11.12C77.8371 10.288 78.3331 9.69067 79.0158 9.328C79.7091 8.95467 80.6264 8.768 81.7678 8.768ZM89.126 8.912C89.7233 8.912 90.326 8.91733 90.934 8.928C91.542 8.928 92.1393 8.93867 92.726 8.96C93.3127 8.98133 93.862 9.01867 94.374 9.072L94.262 10.848H90.022C89.7553 10.848 89.5527 10.9173 89.414 11.056C89.286 11.1947 89.222 11.3973 89.222 11.664V17.296C89.222 17.5627 89.286 17.7653 89.414 17.904C89.5527 18.0427 89.7553 18.112 90.022 18.112H94.262L94.374 19.888C93.862 19.9307 93.3127 19.968 92.726 20C92.1393 20.0213 91.542 20.032 90.934 20.032C90.326 20.0427 89.7233 20.048 89.126 20.048C88.422 20.048 87.8513 19.8453 87.414 19.44C86.9873 19.024 86.774 18.4853 86.774 17.824V11.136C86.774 10.464 86.9873 9.92533 87.414 9.52C87.8513 9.11467 88.422 8.912 89.126 8.912ZM87.062 13.392H93.67V15.12H87.062V13.392Z" fill="#EEEEEE"/>
<path d="M105.528 8.96V15.44C105.528 16.6133 105.373 17.552 105.064 18.256C104.765 18.9493 104.269 19.4507 103.576 19.76C102.893 20.0693 101.976 20.224 100.824 20.224C99.576 20.224 98.5787 20.0693 97.832 19.76C97.096 19.4507 96.5627 18.9493 96.232 18.256C95.912 17.552 95.752 16.6133 95.752 15.44V8.96H99.224V15.44C99.224 16.0267 99.2613 16.48 99.336 16.8C99.4213 17.12 99.5653 17.344 99.768 17.472C99.9813 17.5893 100.275 17.648 100.648 17.648C101.021 17.648 101.309 17.5893 101.512 17.472C101.715 17.344 101.853 17.12 101.928 16.8C102.013 16.48 102.056 16.0267 102.056 15.44V8.96H105.528ZM111.785 8.8C112.959 8.8 113.876 8.912 114.537 9.136C115.199 9.34933 115.668 9.728 115.945 10.272C116.223 10.816 116.361 11.5787 116.361 12.56C116.361 13.5307 116.228 14.288 115.961 14.832C115.705 15.3653 115.279 15.744 114.681 15.968C114.084 16.1813 113.279 16.288 112.265 16.288C111.732 16.288 111.199 16.2613 110.665 16.208C110.132 16.144 109.631 16.0693 109.161 15.984C108.703 15.888 108.308 15.792 107.977 15.696C107.647 15.5893 107.417 15.4933 107.289 15.408L107.337 13.84C108.031 13.84 108.751 13.84 109.497 13.84C110.244 13.84 110.98 13.84 111.705 13.84C112.025 13.84 112.271 13.808 112.441 13.744C112.612 13.6693 112.729 13.5413 112.793 13.36C112.857 13.168 112.889 12.9013 112.889 12.56C112.889 12.208 112.857 11.936 112.793 11.744C112.729 11.552 112.612 11.424 112.441 11.36C112.271 11.2853 112.025 11.248 111.705 11.248C110.617 11.248 109.689 11.2533 108.921 11.264C108.153 11.2747 107.631 11.296 107.353 11.328L107.113 8.96C107.604 8.90667 108.063 8.86933 108.489 8.848C108.927 8.82667 109.401 8.816 109.913 8.816C110.425 8.80533 111.049 8.8 111.785 8.8ZM110.585 8.96V20H107.113V8.96H110.585Z" fill="#FFDA17"/>
</svg>
