<svg width="1160" height="348" viewBox="0 0 1160 348" fill="none" xmlns="http://www.w3.org/2000/svg">
<path d="M0 146.736L169.366 75.3631L41.233 164.025L169.366 252.688L0 181.315V146.736Z" fill="#FF3300"/>
<path d="M403.016 88.2191C403.016 102.11 398.434 115.113 389.271 127.231C380.404 139.348 368.433 149.544 353.359 157.819C373.458 164.321 388.237 174.665 397.695 188.851C407.449 203.037 412.326 217.814 412.326 233.182C412.326 243.526 410.257 253.722 406.119 263.771C401.981 273.524 395.626 282.39 387.055 290.369C378.778 298.349 368.138 304.851 355.132 309.875C342.423 314.604 327.496 316.968 310.352 316.968C300.303 316.968 290.401 315.786 280.647 313.422C271.188 311.353 262.321 307.954 254.045 303.225C246.064 298.497 238.971 292.438 232.763 285.05C226.556 277.661 221.827 268.647 218.576 258.008L255.375 245.595C257.149 251.506 259.809 256.826 263.356 261.554C267.198 265.987 271.484 269.829 276.213 273.08C281.238 276.036 286.558 278.4 292.174 280.173C298.086 281.651 303.85 282.39 309.466 282.39C327.791 282.39 342.127 278.4 352.472 270.42C362.817 262.145 367.99 250.471 367.99 235.399C367.99 228.01 366.66 221.065 364 214.563C361.635 207.766 357.792 201.855 352.472 196.831C347.152 191.511 340.206 187.373 331.634 184.418C323.062 181.462 312.569 179.985 300.155 179.985C291.288 179.985 281.829 180.871 271.78 182.645L313.013 166.247L277.1 152.056C294.243 151.761 308.136 149.544 318.776 145.406C329.713 140.973 338.284 135.801 344.492 129.89C350.699 123.684 354.985 117.034 357.349 109.941C359.714 102.848 360.896 96.1987 360.896 89.9924C360.896 77.2841 356.462 66.6446 347.595 58.0739C338.728 49.5032 327.2 45.2178 313.013 45.2178C299.712 45.2178 288.48 49.2076 279.317 57.1873C270.154 65.1669 263.503 78.9096 259.365 98.4153L221.236 89.1057C226.261 65.4624 236.606 46.5478 252.271 32.3618C267.937 18.1758 287.15 11.0828 309.909 11.0828C327.939 11.0828 342.866 13.4471 354.689 18.1758C366.808 22.6089 376.414 28.5197 383.508 35.9083C390.602 43.2968 395.626 51.572 398.582 60.7338C401.538 69.8956 403.016 79.0573 403.016 88.2191Z" fill="#FF3300"/>
<path d="M549.067 320.895L631.675 316.968V348H441.027L549.067 320.895Z" fill="#FF3300"/>
<path d="M889.149 205.697C889.149 224.907 886.341 241.457 880.725 255.348C875.109 269.238 867.424 280.764 857.67 289.926C847.916 299.088 836.388 305.885 823.087 310.318C809.786 314.752 795.451 316.968 780.081 316.968C764.415 316.968 749.932 314.752 736.631 310.318C723.626 305.885 712.246 299.088 702.492 289.926C692.738 280.764 685.053 269.238 679.437 255.348C674.116 241.457 671.456 224.907 671.456 205.697V0L679.437 154.716L714.019 205.697C714.019 219.883 715.645 232 718.896 242.048C722.148 251.801 726.581 259.781 732.197 265.987C738.109 272.194 745.055 276.775 753.036 279.73C761.312 282.39 770.327 283.72 780.081 283.72C790.13 283.72 799.146 282.39 807.126 279.73C815.402 276.775 822.348 272.194 827.964 265.987C833.876 259.781 838.457 251.801 841.709 242.048C844.96 232 846.586 219.883 846.586 205.697L773.333 60.7338L889.149 0V205.697Z" fill="#FF3300"/>
<path d="M1054.04 0C1071.77 0 1087.29 2.5121 1100.59 7.53631C1113.89 12.265 1124.83 19.0624 1133.4 27.9287C1142.27 36.4994 1148.92 46.8433 1153.35 58.9605C1157.78 70.7822 1160 83.6382 1160 97.5287C1160 111.715 1157.78 124.718 1153.35 136.54C1148.92 148.362 1142.27 158.706 1133.4 167.572C1124.83 176.143 1113.89 182.792 1100.59 187.521C1087.29 192.25 1071.77 194.614 1054.04 194.614H1007.04V310.318H964.476V30.9296L1054.04 0ZM1007.04 34.5783V160.036H1054.04C1066.75 160.036 1077.24 158.262 1085.51 154.716C1093.79 150.874 1100.29 145.997 1105.02 140.087C1110.05 134.176 1113.59 127.526 1115.66 120.138C1117.73 112.749 1118.77 105.213 1118.77 97.5287C1118.77 90.1401 1117.73 82.7516 1115.66 75.3631C1113.59 67.679 1110.05 60.8815 1105.02 54.9707C1100.29 48.7643 1093.79 43.8879 1085.51 40.3414C1077.24 36.4994 1066.75 34.5783 1054.04 34.5783H1007.04Z" fill="#FF3300"/>
</svg>
